<svg xmlns="http://www.w3.org/2000/svg" viewBox="-914 -1694 9532 2874" width="9532" height="2874" role="img" aria-label="Escape Velocity — Inline, Transparent · Light">
  <g>
    <path d="M66.0 0.0V-700.0H516.0V-580.0H198.0V-413.0H488.0V-293.0H198.0V-120.0H522.0V0.0Z" transform="translate(0 0)" fill="#F5F3F0"/>
    <path d="M276.0 14.0Q179.0 14.0 117.0 -28.0Q55.0 -70.0 42.0 -148.0L158.0 -178.0Q165.0 -143.0 181.5 -123.0Q198.0 -103.0 222.5 -94.5Q247.0 -86.0 276.0 -86.0Q320.0 -86.0 341.0 -101.5Q362.0 -117.0 362.0 -140.0Q362.0 -163.0 342.0 -175.5Q322.0 -188.0 278.0 -196.0L250.0 -201.0Q198.0 -211.0 155.0 -228.5Q112.0 -246.0 86.0 -277.0Q60.0 -308.0 60.0 -357.0Q60.0 -431.0 114.0 -470.5Q168.0 -510.0 256.0 -510.0Q339.0 -510.0 394.0 -473.0Q449.0 -436.0 466.0 -376.0L349.0 -340.0Q341.0 -378.0 316.5 -394.0Q292.0 -410.0 256.0 -410.0Q220.0 -410.0 201.0 -397.5Q182.0 -385.0 182.0 -363.0Q182.0 -339.0 202.0 -327.5Q222.0 -316.0 256.0 -310.0L284.0 -305.0Q340.0 -295.0 385.5 -278.5Q431.0 -262.0 457.5 -231.5Q484.0 -201.0 484.0 -149.0Q484.0 -71.0 427.5 -28.5Q371.0 14.0 276.0 14.0Z" transform="translate(554 0)" fill="#F5F3F0"/>
    <path d="M303.0 14.0Q231.0 14.0 172.5 -16.0Q114.0 -46.0 80.0 -103.0Q46.0 -160.0 46.0 -241.0V-255.0Q46.0 -336.0 80.0 -393.0Q114.0 -450.0 172.5 -480.0Q231.0 -510.0 303.0 -510.0Q374.0 -510.0 425.0 -485.0Q476.0 -460.0 507.5 -416.5Q539.0 -373.0 549.0 -318.0L427.0 -292.0Q423.0 -322.0 409.0 -346.0Q395.0 -370.0 369.5 -384.0Q344.0 -398.0 306.0 -398.0Q268.0 -398.0 237.5 -381.5Q207.0 -365.0 189.5 -332.5Q172.0 -300.0 172.0 -253.0V-243.0Q172.0 -196.0 189.5 -163.5Q207.0 -131.0 237.5 -114.5Q268.0 -98.0 306.0 -98.0Q363.0 -98.0 392.5 -127.5Q422.0 -157.0 430.0 -205.0L552.0 -176.0Q539.0 -123.0 507.5 -79.5Q476.0 -36.0 425.0 -11.0Q374.0 14.0 303.0 14.0Z" transform="translate(1078 0)" fill="#F5F3F0"/>
    <path d="M224.0 14.0Q171.0 14.0 129.0 -4.5Q87.0 -23.0 62.5 -58.5Q38.0 -94.0 38.0 -145.0Q38.0 -196.0 62.5 -230.5Q87.0 -265.0 130.5 -282.5Q174.0 -300.0 230.0 -300.0H366.0V-328.0Q366.0 -363.0 344.0 -385.5Q322.0 -408.0 274.0 -408.0Q227.0 -408.0 204.0 -386.5Q181.0 -365.0 174.0 -331.0L58.0 -370.0Q70.0 -408.0 96.5 -439.5Q123.0 -471.0 167.5 -490.5Q212.0 -510.0 276.0 -510.0Q374.0 -510.0 431.0 -461.0Q488.0 -412.0 488.0 -319.0V-134.0Q488.0 -104.0 516.0 -104.0H556.0V0.0H472.0Q435.0 0.0 411.0 -18.0Q387.0 -36.0 387.0 -66.0V-67.0H368.0Q364.0 -55.0 350.0 -35.5Q336.0 -16.0 306.0 -1.0Q276.0 14.0 224.0 14.0ZM246.0 -88.0Q299.0 -88.0 332.5 -117.5Q366.0 -147.0 366.0 -196.0V-206.0H239.0Q204.0 -206.0 184.0 -191.0Q164.0 -176.0 164.0 -149.0Q164.0 -122.0 185.0 -105.0Q206.0 -88.0 246.0 -88.0Z" transform="translate(1664 0)" fill="#F5F3F0"/>
    <path d="M70.0 200.0V-496.0H194.0V-436.0H212.0Q229.0 -465.0 265.0 -487.5Q301.0 -510.0 368.0 -510.0Q428.0 -510.0 479.0 -480.5Q530.0 -451.0 561.0 -394.0Q592.0 -337.0 592.0 -256.0V-240.0Q592.0 -159.0 561.0 -102.0Q530.0 -45.0 479.0 -15.5Q428.0 14.0 368.0 14.0Q323.0 14.0 292.5 3.5Q262.0 -7.0 243.5 -23.5Q225.0 -40.0 214.0 -57.0H196.0V200.0ZM330.0 -96.0Q389.0 -96.0 427.5 -133.5Q466.0 -171.0 466.0 -243.0V-253.0Q466.0 -325.0 427.0 -362.5Q388.0 -400.0 330.0 -400.0Q272.0 -400.0 233.0 -362.5Q194.0 -325.0 194.0 -253.0V-243.0Q194.0 -171.0 233.0 -133.5Q272.0 -96.0 330.0 -96.0Z" transform="translate(2242 0)" fill="#F5F3F0"/>
    <path d="M296.0 14.0Q222.0 14.0 165.5 -17.5Q109.0 -49.0 77.5 -106.5Q46.0 -164.0 46.0 -242.0V-254.0Q46.0 -332.0 77.0 -389.5Q108.0 -447.0 164.0 -478.5Q220.0 -510.0 294.0 -510.0Q367.0 -510.0 421.0 -477.5Q475.0 -445.0 505.0 -387.5Q535.0 -330.0 535.0 -254.0V-211.0H174.0Q176.0 -160.0 212.0 -128.0Q248.0 -96.0 300.0 -96.0Q353.0 -96.0 378.0 -119.0Q403.0 -142.0 416.0 -170.0L519.0 -116.0Q505.0 -90.0 478.5 -59.5Q452.0 -29.0 408.0 -7.5Q364.0 14.0 296.0 14.0ZM175.0 -305.0H407.0Q403.0 -348.0 372.5 -374.0Q342.0 -400.0 293.0 -400.0Q242.0 -400.0 212.0 -374.0Q182.0 -348.0 175.0 -305.0Z" transform="translate(2880 0)" fill="#F5F3F0"/>
    <path d="M196.0 0.0 18.0 -700.0H154.0L302.0 -85.0H316.0L464.0 -700.0H600.0L422.0 0.0Z" transform="translate(3711 0)" fill="#E8865A"/>
    <path d="M296.0 14.0Q222.0 14.0 165.5 -17.5Q109.0 -49.0 77.5 -106.5Q46.0 -164.0 46.0 -242.0V-254.0Q46.0 -332.0 77.0 -389.5Q108.0 -447.0 164.0 -478.5Q220.0 -510.0 294.0 -510.0Q367.0 -510.0 421.0 -477.5Q475.0 -445.0 505.0 -387.5Q535.0 -330.0 535.0 -254.0V-211.0H174.0Q176.0 -160.0 212.0 -128.0Q248.0 -96.0 300.0 -96.0Q353.0 -96.0 378.0 -119.0Q403.0 -142.0 416.0 -170.0L519.0 -116.0Q505.0 -90.0 478.5 -59.5Q452.0 -29.0 408.0 -7.5Q364.0 14.0 296.0 14.0ZM175.0 -305.0H407.0Q403.0 -348.0 372.5 -374.0Q342.0 -400.0 293.0 -400.0Q242.0 -400.0 212.0 -374.0Q182.0 -348.0 175.0 -305.0Z" transform="translate(4329 0)" fill="#E8865A"/>
    <path d="M70.0 0.0V-700.0H196.0V0.0Z" transform="translate(4906 0)" fill="#E8865A"/>
    <path d="M306.0 14.0Q232.0 14.0 173.0 -16.0Q114.0 -46.0 80.0 -103.0Q46.0 -160.0 46.0 -240.0V-256.0Q46.0 -336.0 80.0 -393.0Q114.0 -450.0 173.0 -480.0Q232.0 -510.0 306.0 -510.0Q380.0 -510.0 439.0 -480.0Q498.0 -450.0 532.0 -393.0Q566.0 -336.0 566.0 -256.0V-240.0Q566.0 -160.0 532.0 -103.0Q498.0 -46.0 439.0 -16.0Q380.0 14.0 306.0 14.0ZM306.0 -98.0Q364.0 -98.0 402.0 -135.5Q440.0 -173.0 440.0 -243.0V-253.0Q440.0 -323.0 402.5 -360.5Q365.0 -398.0 306.0 -398.0Q248.0 -398.0 210.0 -360.5Q172.0 -323.0 172.0 -253.0V-243.0Q172.0 -173.0 210.0 -135.5Q248.0 -98.0 306.0 -98.0Z" transform="translate(5172 0)" fill="#E8865A"/>
    <path d="M303.0 14.0Q231.0 14.0 172.5 -16.0Q114.0 -46.0 80.0 -103.0Q46.0 -160.0 46.0 -241.0V-255.0Q46.0 -336.0 80.0 -393.0Q114.0 -450.0 172.5 -480.0Q231.0 -510.0 303.0 -510.0Q374.0 -510.0 425.0 -485.0Q476.0 -460.0 507.5 -416.5Q539.0 -373.0 549.0 -318.0L427.0 -292.0Q423.0 -322.0 409.0 -346.0Q395.0 -370.0 369.5 -384.0Q344.0 -398.0 306.0 -398.0Q268.0 -398.0 237.5 -381.5Q207.0 -365.0 189.5 -332.5Q172.0 -300.0 172.0 -253.0V-243.0Q172.0 -196.0 189.5 -163.5Q207.0 -131.0 237.5 -114.5Q268.0 -98.0 306.0 -98.0Q363.0 -98.0 392.5 -127.5Q422.0 -157.0 430.0 -205.0L552.0 -176.0Q539.0 -123.0 507.5 -79.5Q476.0 -36.0 425.0 -11.0Q374.0 14.0 303.0 14.0Z" transform="translate(5784 0)" fill="#E8865A"/>
    <path d="M70.0 0.0V-496.0H196.0V0.0ZM133.0 -554.0Q99.0 -554.0 75.5 -576.0Q52.0 -598.0 52.0 -634.0Q52.0 -670.0 75.5 -692.0Q99.0 -714.0 133.0 -714.0Q168.0 -714.0 191.0 -692.0Q214.0 -670.0 214.0 -634.0Q214.0 -598.0 191.0 -576.0Q168.0 -554.0 133.0 -554.0Z" transform="translate(6370 0)" fill="#E8865A"/>
    <path d="M260.0 0.0Q211.0 0.0 180.5 -30.5Q150.0 -61.0 150.0 -112.0V-392.0H26.0V-496.0H150.0V-650.0H276.0V-496.0H412.0V-392.0H276.0V-134.0Q276.0 -104.0 304.0 -104.0H400.0V0.0Z" transform="translate(6636 0)" fill="#E8865A"/>
    <path d="M124.0 200.0V90.0H394.0Q422.0 90.0 422.0 60.0V-65.0H404.0Q396.0 -48.0 379.0 -31.0Q362.0 -14.0 333.0 -3.0Q304.0 8.0 259.0 8.0Q201.0 8.0 157.5 -18.5Q114.0 -45.0 90.0 -92.0Q66.0 -139.0 66.0 -200.0V-496.0H192.0V-210.0Q192.0 -154.0 219.5 -126.0Q247.0 -98.0 298.0 -98.0Q356.0 -98.0 388.0 -136.5Q420.0 -175.0 420.0 -244.0V-496.0H546.0V88.0Q546.0 139.0 516.0 169.5Q486.0 200.0 436.0 200.0Z" transform="translate(7092 0)" fill="#E8865A"/>
  </g>
</svg>
