<svg xmlns="http://www.w3.org/2000/svg" viewBox="0 0 43 43" width="860" height="860" role="img" aria-label="QR code — escapevelocity.consulting/hi/">
<g fill="#1E1C1A" shape-rendering="crispEdges"><rect x="3" y="3" width="1" height="1"/><rect x="4" y="3" width="1" height="1"/><rect x="5" y="3" width="1" height="1"/><rect x="6" y="3" width="1" height="1"/><rect x="7" y="3" width="1" height="1"/><rect x="8" y="3" width="1" height="1"/><rect x="9" y="3" width="1" height="1"/><rect x="12" y="3" width="1" height="1"/><rect x="13" y="3" width="1" height="1"/><rect x="14" y="3" width="1" height="1"/><rect x="17" y="3" width="1" height="1"/><rect x="18" y="3" width="1" height="1"/><rect x="19" y="3" width="1" height="1"/><rect x="20" y="3" width="1" height="1"/><rect x="21" y="3" width="1" height="1"/><rect x="22" y="3" width="1" height="1"/><rect x="23" y="3" width="1" height="1"/><rect x="28" y="3" width="1" height="1"/><rect x="31" y="3" width="1" height="1"/><rect x="33" y="3" width="1" height="1"/><rect x="34" y="3" width="1" height="1"/><rect x="35" y="3" width="1" height="1"/><rect x="36" y="3" width="1" height="1"/><rect x="37" y="3" width="1" height="1"/><rect x="38" y="3" width="1" height="1"/><rect x="39" y="3" width="1" height="1"/><rect x="3" y="4" width="1" height="1"/><rect x="9" y="4" width="1" height="1"/><rect x="14" y="4" width="1" height="1"/><rect x="15" y="4" width="1" height="1"/><rect x="16" y="4" width="1" height="1"/><rect x="18" y="4" width="1" height="1"/><rect x="19" y="4" width="1" height="1"/><rect x="20" y="4" width="1" height="1"/><rect x="21" y="4" width="1" height="1"/><rect x="22" y="4" width="1" height="1"/><rect x="23" y="4" width="1" height="1"/><rect x="24" y="4" width="1" height="1"/><rect x="26" y="4" width="1" height="1"/><rect x="31" y="4" width="1" height="1"/><rect x="33" y="4" width="1" height="1"/><rect x="39" y="4" width="1" height="1"/><rect x="3" y="5" width="1" height="1"/><rect x="5" y="5" width="1" height="1"/><rect x="6" y="5" width="1" height="1"/><rect x="7" y="5" width="1" height="1"/><rect x="9" y="5" width="1" height="1"/><rect x="13" y="5" width="1" height="1"/><rect x="17" y="5" width="1" height="1"/><rect x="18" y="5" width="1" height="1"/><rect x="20" y="5" width="1" height="1"/><rect x="24" y="5" width="1" height="1"/><rect x="27" y="5" width="1" height="1"/><rect x="28" y="5" width="1" height="1"/><rect x="30" y="5" width="1" height="1"/><rect x="33" y="5" width="1" height="1"/><rect x="35" y="5" width="1" height="1"/><rect x="36" y="5" width="1" height="1"/><rect x="37" y="5" width="1" height="1"/><rect x="39" y="5" width="1" height="1"/><rect x="3" y="6" width="1" height="1"/><rect x="5" y="6" width="1" height="1"/><rect x="6" y="6" width="1" height="1"/><rect x="7" y="6" width="1" height="1"/><rect x="9" y="6" width="1" height="1"/><rect x="12" y="6" width="1" height="1"/><rect x="13" y="6" width="1" height="1"/><rect x="14" y="6" width="1" height="1"/><rect x="15" y="6" width="1" height="1"/><rect x="16" y="6" width="1" height="1"/><rect x="17" y="6" width="1" height="1"/><rect x="20" y="6" width="1" height="1"/><rect x="23" y="6" width="1" height="1"/><rect x="24" y="6" width="1" height="1"/><rect x="25" y="6" width="1" height="1"/><rect x="26" y="6" width="1" height="1"/><rect x="27" y="6" width="1" height="1"/><rect x="28" y="6" width="1" height="1"/><rect x="29" y="6" width="1" height="1"/><rect x="33" y="6" width="1" height="1"/><rect x="35" y="6" width="1" height="1"/><rect x="36" y="6" width="1" height="1"/><rect x="37" y="6" width="1" height="1"/><rect x="39" y="6" width="1" height="1"/><rect x="3" y="7" width="1" height="1"/><rect x="5" y="7" width="1" height="1"/><rect x="6" y="7" width="1" height="1"/><rect x="7" y="7" width="1" height="1"/><rect x="9" y="7" width="1" height="1"/><rect x="11" y="7" width="1" height="1"/><rect x="13" y="7" width="1" height="1"/><rect x="15" y="7" width="1" height="1"/><rect x="16" y="7" width="1" height="1"/><rect x="18" y="7" width="1" height="1"/><rect x="21" y="7" width="1" height="1"/><rect x="22" y="7" width="1" height="1"/><rect x="23" y="7" width="1" height="1"/><rect x="24" y="7" width="1" height="1"/><rect x="25" y="7" width="1" height="1"/><rect x="26" y="7" width="1" height="1"/><rect x="30" y="7" width="1" height="1"/><rect x="33" y="7" width="1" height="1"/><rect x="35" y="7" width="1" height="1"/><rect x="36" y="7" width="1" height="1"/><rect x="37" y="7" width="1" height="1"/><rect x="39" y="7" width="1" height="1"/><rect x="3" y="8" width="1" height="1"/><rect x="9" y="8" width="1" height="1"/><rect x="13" y="8" width="1" height="1"/><rect x="15" y="8" width="1" height="1"/><rect x="16" y="8" width="1" height="1"/><rect x="17" y="8" width="1" height="1"/><rect x="23" y="8" width="1" height="1"/><rect x="26" y="8" width="1" height="1"/><rect x="28" y="8" width="1" height="1"/><rect x="33" y="8" width="1" height="1"/><rect x="39" y="8" width="1" height="1"/><rect x="3" y="9" width="1" height="1"/><rect x="4" y="9" width="1" height="1"/><rect x="5" y="9" width="1" height="1"/><rect x="6" y="9" width="1" height="1"/><rect x="7" y="9" width="1" height="1"/><rect x="8" y="9" width="1" height="1"/><rect x="9" y="9" width="1" height="1"/><rect x="11" y="9" width="1" height="1"/><rect x="13" y="9" width="1" height="1"/><rect x="15" y="9" width="1" height="1"/><rect x="17" y="9" width="1" height="1"/><rect x="19" y="9" width="1" height="1"/><rect x="21" y="9" width="1" height="1"/><rect x="23" y="9" width="1" height="1"/><rect x="25" y="9" width="1" height="1"/><rect x="27" y="9" width="1" height="1"/><rect x="29" y="9" width="1" height="1"/><rect x="31" y="9" width="1" height="1"/><rect x="33" y="9" width="1" height="1"/><rect x="34" y="9" width="1" height="1"/><rect x="35" y="9" width="1" height="1"/><rect x="36" y="9" width="1" height="1"/><rect x="37" y="9" width="1" height="1"/><rect x="38" y="9" width="1" height="1"/><rect x="39" y="9" width="1" height="1"/><rect x="11" y="10" width="1" height="1"/><rect x="12" y="10" width="1" height="1"/><rect x="14" y="10" width="1" height="1"/><rect x="16" y="10" width="1" height="1"/><rect x="22" y="10" width="1" height="1"/><rect x="23" y="10" width="1" height="1"/><rect x="30" y="10" width="1" height="1"/><rect x="31" y="10" width="1" height="1"/><rect x="5" y="11" width="1" height="1"/><rect x="6" y="11" width="1" height="1"/><rect x="9" y="11" width="1" height="1"/><rect x="10" y="11" width="1" height="1"/><rect x="11" y="11" width="1" height="1"/><rect x="12" y="11" width="1" height="1"/><rect x="18" y="11" width="1" height="1"/><rect x="20" y="11" width="1" height="1"/><rect x="22" y="11" width="1" height="1"/><rect x="23" y="11" width="1" height="1"/><rect x="25" y="11" width="1" height="1"/><rect x="26" y="11" width="1" height="1"/><rect x="27" y="11" width="1" height="1"/><rect x="28" y="11" width="1" height="1"/><rect x="30" y="11" width="1" height="1"/><rect x="31" y="11" width="1" height="1"/><rect x="32" y="11" width="1" height="1"/><rect x="33" y="11" width="1" height="1"/><rect x="35" y="11" width="1" height="1"/><rect x="6" y="12" width="1" height="1"/><rect x="10" y="12" width="1" height="1"/><rect x="12" y="12" width="1" height="1"/><rect x="13" y="12" width="1" height="1"/><rect x="14" y="12" width="1" height="1"/><rect x="15" y="12" width="1" height="1"/><rect x="21" y="12" width="1" height="1"/><rect x="22" y="12" width="1" height="1"/><rect x="25" y="12" width="1" height="1"/><rect x="26" y="12" width="1" height="1"/><rect x="27" y="12" width="1" height="1"/><rect x="28" y="12" width="1" height="1"/><rect x="29" y="12" width="1" height="1"/><rect x="30" y="12" width="1" height="1"/><rect x="31" y="12" width="1" height="1"/><rect x="33" y="12" width="1" height="1"/><rect x="37" y="12" width="1" height="1"/><rect x="4" y="13" width="1" height="1"/><rect x="5" y="13" width="1" height="1"/><rect x="9" y="13" width="1" height="1"/><rect x="12" y="13" width="1" height="1"/><rect x="13" y="13" width="1" height="1"/><rect x="14" y="13" width="1" height="1"/><rect x="15" y="13" width="1" height="1"/><rect x="16" y="13" width="1" height="1"/><rect x="19" y="13" width="1" height="1"/><rect x="20" y="13" width="1" height="1"/><rect x="25" y="13" width="1" height="1"/><rect x="26" y="13" width="1" height="1"/><rect x="27" y="13" width="1" height="1"/><rect x="28" y="13" width="1" height="1"/><rect x="30" y="13" width="1" height="1"/><rect x="32" y="13" width="1" height="1"/><rect x="34" y="13" width="1" height="1"/><rect x="36" y="13" width="1" height="1"/><rect x="37" y="13" width="1" height="1"/><rect x="38" y="13" width="1" height="1"/><rect x="4" y="14" width="1" height="1"/><rect x="5" y="14" width="1" height="1"/><rect x="6" y="14" width="1" height="1"/><rect x="10" y="14" width="1" height="1"/><rect x="11" y="14" width="1" height="1"/><rect x="18" y="14" width="1" height="1"/><rect x="19" y="14" width="1" height="1"/><rect x="21" y="14" width="1" height="1"/><rect x="23" y="14" width="1" height="1"/><rect x="25" y="14" width="1" height="1"/><rect x="26" y="14" width="1" height="1"/><rect x="28" y="14" width="1" height="1"/><rect x="29" y="14" width="1" height="1"/><rect x="30" y="14" width="1" height="1"/><rect x="35" y="14" width="1" height="1"/><rect x="36" y="14" width="1" height="1"/><rect x="37" y="14" width="1" height="1"/><rect x="38" y="14" width="1" height="1"/><rect x="4" y="15" width="1" height="1"/><rect x="5" y="15" width="1" height="1"/><rect x="6" y="15" width="1" height="1"/><rect x="7" y="15" width="1" height="1"/><rect x="9" y="15" width="1" height="1"/><rect x="11" y="15" width="1" height="1"/><rect x="15" y="15" width="1" height="1"/><rect x="20" y="15" width="1" height="1"/><rect x="23" y="15" width="1" height="1"/><rect x="24" y="15" width="1" height="1"/><rect x="25" y="15" width="1" height="1"/><rect x="27" y="15" width="1" height="1"/><rect x="28" y="15" width="1" height="1"/><rect x="29" y="15" width="1" height="1"/><rect x="32" y="15" width="1" height="1"/><rect x="33" y="15" width="1" height="1"/><rect x="35" y="15" width="1" height="1"/><rect x="36" y="15" width="1" height="1"/><rect x="37" y="15" width="1" height="1"/><rect x="3" y="16" width="1" height="1"/><rect x="4" y="16" width="1" height="1"/><rect x="5" y="16" width="1" height="1"/><rect x="8" y="16" width="1" height="1"/><rect x="17" y="16" width="1" height="1"/><rect x="18" y="16" width="1" height="1"/><rect x="19" y="16" width="1" height="1"/><rect x="23" y="16" width="1" height="1"/><rect x="25" y="16" width="1" height="1"/><rect x="29" y="16" width="1" height="1"/><rect x="30" y="16" width="1" height="1"/><rect x="31" y="16" width="1" height="1"/><rect x="33" y="16" width="1" height="1"/><rect x="34" y="16" width="1" height="1"/><rect x="35" y="16" width="1" height="1"/><rect x="37" y="16" width="1" height="1"/><rect x="38" y="16" width="1" height="1"/><rect x="39" y="16" width="1" height="1"/><rect x="4" y="17" width="1" height="1"/><rect x="5" y="17" width="1" height="1"/><rect x="9" y="17" width="1" height="1"/><rect x="10" y="17" width="1" height="1"/><rect x="13" y="17" width="1" height="1"/><rect x="14" y="17" width="1" height="1"/><rect x="15" y="17" width="1" height="1"/><rect x="16" y="17" width="1" height="1"/><rect x="18" y="17" width="1" height="1"/><rect x="21" y="17" width="1" height="1"/><rect x="23" y="17" width="1" height="1"/><rect x="24" y="17" width="1" height="1"/><rect x="25" y="17" width="1" height="1"/><rect x="26" y="17" width="1" height="1"/><rect x="27" y="17" width="1" height="1"/><rect x="32" y="17" width="1" height="1"/><rect x="35" y="17" width="1" height="1"/><rect x="37" y="17" width="1" height="1"/><rect x="38" y="17" width="1" height="1"/><rect x="3" y="18" width="1" height="1"/><rect x="5" y="18" width="1" height="1"/><rect x="6" y="18" width="1" height="1"/><rect x="11" y="18" width="1" height="1"/><rect x="12" y="18" width="1" height="1"/><rect x="15" y="18" width="1" height="1"/><rect x="16" y="18" width="1" height="1"/><rect x="17" y="18" width="1" height="1"/><rect x="18" y="18" width="1" height="1"/><rect x="19" y="18" width="1" height="1"/><rect x="20" y="18" width="1" height="1"/><rect x="22" y="18" width="1" height="1"/><rect x="24" y="18" width="1" height="1"/><rect x="25" y="18" width="1" height="1"/><rect x="29" y="18" width="1" height="1"/><rect x="30" y="18" width="1" height="1"/><rect x="31" y="18" width="1" height="1"/><rect x="34" y="18" width="1" height="1"/><rect x="35" y="18" width="1" height="1"/><rect x="38" y="18" width="1" height="1"/><rect x="4" y="19" width="1" height="1"/><rect x="5" y="19" width="1" height="1"/><rect x="9" y="19" width="1" height="1"/><rect x="12" y="19" width="1" height="1"/><rect x="14" y="19" width="1" height="1"/><rect x="15" y="19" width="1" height="1"/><rect x="19" y="19" width="1" height="1"/><rect x="21" y="19" width="1" height="1"/><rect x="22" y="19" width="1" height="1"/><rect x="25" y="19" width="1" height="1"/><rect x="27" y="19" width="1" height="1"/><rect x="28" y="19" width="1" height="1"/><rect x="34" y="19" width="1" height="1"/><rect x="36" y="19" width="1" height="1"/><rect x="37" y="19" width="1" height="1"/><rect x="38" y="19" width="1" height="1"/><rect x="5" y="20" width="1" height="1"/><rect x="6" y="20" width="1" height="1"/><rect x="7" y="20" width="1" height="1"/><rect x="8" y="20" width="1" height="1"/><rect x="10" y="20" width="1" height="1"/><rect x="13" y="20" width="1" height="1"/><rect x="16" y="20" width="1" height="1"/><rect x="17" y="20" width="1" height="1"/><rect x="19" y="20" width="1" height="1"/><rect x="23" y="20" width="1" height="1"/><rect x="28" y="20" width="1" height="1"/><rect x="30" y="20" width="1" height="1"/><rect x="33" y="20" width="1" height="1"/><rect x="37" y="20" width="1" height="1"/><rect x="39" y="20" width="1" height="1"/><rect x="7" y="21" width="1" height="1"/><rect x="8" y="21" width="1" height="1"/><rect x="9" y="21" width="1" height="1"/><rect x="10" y="21" width="1" height="1"/><rect x="11" y="21" width="1" height="1"/><rect x="12" y="21" width="1" height="1"/><rect x="13" y="21" width="1" height="1"/><rect x="14" y="21" width="1" height="1"/><rect x="16" y="21" width="1" height="1"/><rect x="17" y="21" width="1" height="1"/><rect x="18" y="21" width="1" height="1"/><rect x="19" y="21" width="1" height="1"/><rect x="20" y="21" width="1" height="1"/><rect x="22" y="21" width="1" height="1"/><rect x="23" y="21" width="1" height="1"/><rect x="24" y="21" width="1" height="1"/><rect x="26" y="21" width="1" height="1"/><rect x="27" y="21" width="1" height="1"/><rect x="29" y="21" width="1" height="1"/><rect x="30" y="21" width="1" height="1"/><rect x="32" y="21" width="1" height="1"/><rect x="34" y="21" width="1" height="1"/><rect x="38" y="21" width="1" height="1"/><rect x="39" y="21" width="1" height="1"/><rect x="6" y="22" width="1" height="1"/><rect x="12" y="22" width="1" height="1"/><rect x="13" y="22" width="1" height="1"/><rect x="14" y="22" width="1" height="1"/><rect x="15" y="22" width="1" height="1"/><rect x="21" y="22" width="1" height="1"/><rect x="22" y="22" width="1" height="1"/><rect x="24" y="22" width="1" height="1"/><rect x="27" y="22" width="1" height="1"/><rect x="29" y="22" width="1" height="1"/><rect x="31" y="22" width="1" height="1"/><rect x="32" y="22" width="1" height="1"/><rect x="33" y="22" width="1" height="1"/><rect x="34" y="22" width="1" height="1"/><rect x="35" y="22" width="1" height="1"/><rect x="36" y="22" width="1" height="1"/><rect x="3" y="23" width="1" height="1"/><rect x="8" y="23" width="1" height="1"/><rect x="9" y="23" width="1" height="1"/><rect x="14" y="23" width="1" height="1"/><rect x="15" y="23" width="1" height="1"/><rect x="17" y="23" width="1" height="1"/><rect x="18" y="23" width="1" height="1"/><rect x="20" y="23" width="1" height="1"/><rect x="21" y="23" width="1" height="1"/><rect x="23" y="23" width="1" height="1"/><rect x="29" y="23" width="1" height="1"/><rect x="30" y="23" width="1" height="1"/><rect x="31" y="23" width="1" height="1"/><rect x="32" y="23" width="1" height="1"/><rect x="35" y="23" width="1" height="1"/><rect x="36" y="23" width="1" height="1"/><rect x="38" y="23" width="1" height="1"/><rect x="3" y="24" width="1" height="1"/><rect x="6" y="24" width="1" height="1"/><rect x="8" y="24" width="1" height="1"/><rect x="10" y="24" width="1" height="1"/><rect x="11" y="24" width="1" height="1"/><rect x="14" y="24" width="1" height="1"/><rect x="18" y="24" width="1" height="1"/><rect x="19" y="24" width="1" height="1"/><rect x="20" y="24" width="1" height="1"/><rect x="23" y="24" width="1" height="1"/><rect x="24" y="24" width="1" height="1"/><rect x="25" y="24" width="1" height="1"/><rect x="26" y="24" width="1" height="1"/><rect x="28" y="24" width="1" height="1"/><rect x="32" y="24" width="1" height="1"/><rect x="34" y="24" width="1" height="1"/><rect x="37" y="24" width="1" height="1"/><rect x="5" y="25" width="1" height="1"/><rect x="6" y="25" width="1" height="1"/><rect x="8" y="25" width="1" height="1"/><rect x="9" y="25" width="1" height="1"/><rect x="11" y="25" width="1" height="1"/><rect x="14" y="25" width="1" height="1"/><rect x="16" y="25" width="1" height="1"/><rect x="17" y="25" width="1" height="1"/><rect x="18" y="25" width="1" height="1"/><rect x="23" y="25" width="1" height="1"/><rect x="24" y="25" width="1" height="1"/><rect x="25" y="25" width="1" height="1"/><rect x="27" y="25" width="1" height="1"/><rect x="28" y="25" width="1" height="1"/><rect x="33" y="25" width="1" height="1"/><rect x="35" y="25" width="1" height="1"/><rect x="37" y="25" width="1" height="1"/><rect x="38" y="25" width="1" height="1"/><rect x="3" y="26" width="1" height="1"/><rect x="4" y="26" width="1" height="1"/><rect x="5" y="26" width="1" height="1"/><rect x="7" y="26" width="1" height="1"/><rect x="8" y="26" width="1" height="1"/><rect x="10" y="26" width="1" height="1"/><rect x="11" y="26" width="1" height="1"/><rect x="13" y="26" width="1" height="1"/><rect x="14" y="26" width="1" height="1"/><rect x="16" y="26" width="1" height="1"/><rect x="19" y="26" width="1" height="1"/><rect x="21" y="26" width="1" height="1"/><rect x="22" y="26" width="1" height="1"/><rect x="23" y="26" width="1" height="1"/><rect x="25" y="26" width="1" height="1"/><rect x="27" y="26" width="1" height="1"/><rect x="30" y="26" width="1" height="1"/><rect x="31" y="26" width="1" height="1"/><rect x="33" y="26" width="1" height="1"/><rect x="36" y="26" width="1" height="1"/><rect x="37" y="26" width="1" height="1"/><rect x="38" y="26" width="1" height="1"/><rect x="39" y="26" width="1" height="1"/><rect x="5" y="27" width="1" height="1"/><rect x="9" y="27" width="1" height="1"/><rect x="10" y="27" width="1" height="1"/><rect x="11" y="27" width="1" height="1"/><rect x="12" y="27" width="1" height="1"/><rect x="13" y="27" width="1" height="1"/><rect x="16" y="27" width="1" height="1"/><rect x="17" y="27" width="1" height="1"/><rect x="18" y="27" width="1" height="1"/><rect x="19" y="27" width="1" height="1"/><rect x="21" y="27" width="1" height="1"/><rect x="22" y="27" width="1" height="1"/><rect x="24" y="27" width="1" height="1"/><rect x="27" y="27" width="1" height="1"/><rect x="29" y="27" width="1" height="1"/><rect x="31" y="27" width="1" height="1"/><rect x="32" y="27" width="1" height="1"/><rect x="35" y="27" width="1" height="1"/><rect x="36" y="27" width="1" height="1"/><rect x="37" y="27" width="1" height="1"/><rect x="38" y="27" width="1" height="1"/><rect x="39" y="27" width="1" height="1"/><rect x="4" y="28" width="1" height="1"/><rect x="5" y="28" width="1" height="1"/><rect x="8" y="28" width="1" height="1"/><rect x="11" y="28" width="1" height="1"/><rect x="12" y="28" width="1" height="1"/><rect x="13" y="28" width="1" height="1"/><rect x="18" y="28" width="1" height="1"/><rect x="19" y="28" width="1" height="1"/><rect x="20" y="28" width="1" height="1"/><rect x="22" y="28" width="1" height="1"/><rect x="25" y="28" width="1" height="1"/><rect x="26" y="28" width="1" height="1"/><rect x="27" y="28" width="1" height="1"/><rect x="29" y="28" width="1" height="1"/><rect x="32" y="28" width="1" height="1"/><rect x="35" y="28" width="1" height="1"/><rect x="37" y="28" width="1" height="1"/><rect x="39" y="28" width="1" height="1"/><rect x="4" y="29" width="1" height="1"/><rect x="5" y="29" width="1" height="1"/><rect x="6" y="29" width="1" height="1"/><rect x="7" y="29" width="1" height="1"/><rect x="9" y="29" width="1" height="1"/><rect x="11" y="29" width="1" height="1"/><rect x="12" y="29" width="1" height="1"/><rect x="13" y="29" width="1" height="1"/><rect x="14" y="29" width="1" height="1"/><rect x="15" y="29" width="1" height="1"/><rect x="16" y="29" width="1" height="1"/><rect x="18" y="29" width="1" height="1"/><rect x="19" y="29" width="1" height="1"/><rect x="20" y="29" width="1" height="1"/><rect x="24" y="29" width="1" height="1"/><rect x="26" y="29" width="1" height="1"/><rect x="28" y="29" width="1" height="1"/><rect x="29" y="29" width="1" height="1"/><rect x="37" y="29" width="1" height="1"/><rect x="38" y="29" width="1" height="1"/><rect x="3" y="30" width="1" height="1"/><rect x="5" y="30" width="1" height="1"/><rect x="6" y="30" width="1" height="1"/><rect x="7" y="30" width="1" height="1"/><rect x="8" y="30" width="1" height="1"/><rect x="10" y="30" width="1" height="1"/><rect x="11" y="30" width="1" height="1"/><rect x="12" y="30" width="1" height="1"/><rect x="14" y="30" width="1" height="1"/><rect x="18" y="30" width="1" height="1"/><rect x="19" y="30" width="1" height="1"/><rect x="20" y="30" width="1" height="1"/><rect x="23" y="30" width="1" height="1"/><rect x="25" y="30" width="1" height="1"/><rect x="26" y="30" width="1" height="1"/><rect x="29" y="30" width="1" height="1"/><rect x="30" y="30" width="1" height="1"/><rect x="32" y="30" width="1" height="1"/><rect x="35" y="30" width="1" height="1"/><rect x="39" y="30" width="1" height="1"/><rect x="5" y="31" width="1" height="1"/><rect x="6" y="31" width="1" height="1"/><rect x="8" y="31" width="1" height="1"/><rect x="9" y="31" width="1" height="1"/><rect x="11" y="31" width="1" height="1"/><rect x="12" y="31" width="1" height="1"/><rect x="13" y="31" width="1" height="1"/><rect x="14" y="31" width="1" height="1"/><rect x="16" y="31" width="1" height="1"/><rect x="18" y="31" width="1" height="1"/><rect x="20" y="31" width="1" height="1"/><rect x="22" y="31" width="1" height="1"/><rect x="25" y="31" width="1" height="1"/><rect x="28" y="31" width="1" height="1"/><rect x="31" y="31" width="1" height="1"/><rect x="32" y="31" width="1" height="1"/><rect x="33" y="31" width="1" height="1"/><rect x="34" y="31" width="1" height="1"/><rect x="35" y="31" width="1" height="1"/><rect x="37" y="31" width="1" height="1"/><rect x="11" y="32" width="1" height="1"/><rect x="12" y="32" width="1" height="1"/><rect x="13" y="32" width="1" height="1"/><rect x="14" y="32" width="1" height="1"/><rect x="16" y="32" width="1" height="1"/><rect x="18" y="32" width="1" height="1"/><rect x="19" y="32" width="1" height="1"/><rect x="20" y="32" width="1" height="1"/><rect x="21" y="32" width="1" height="1"/><rect x="22" y="32" width="1" height="1"/><rect x="25" y="32" width="1" height="1"/><rect x="26" y="32" width="1" height="1"/><rect x="27" y="32" width="1" height="1"/><rect x="29" y="32" width="1" height="1"/><rect x="30" y="32" width="1" height="1"/><rect x="31" y="32" width="1" height="1"/><rect x="35" y="32" width="1" height="1"/><rect x="36" y="32" width="1" height="1"/><rect x="37" y="32" width="1" height="1"/><rect x="39" y="32" width="1" height="1"/><rect x="3" y="33" width="1" height="1"/><rect x="4" y="33" width="1" height="1"/><rect x="5" y="33" width="1" height="1"/><rect x="6" y="33" width="1" height="1"/><rect x="7" y="33" width="1" height="1"/><rect x="8" y="33" width="1" height="1"/><rect x="9" y="33" width="1" height="1"/><rect x="11" y="33" width="1" height="1"/><rect x="13" y="33" width="1" height="1"/><rect x="14" y="33" width="1" height="1"/><rect x="16" y="33" width="1" height="1"/><rect x="19" y="33" width="1" height="1"/><rect x="20" y="33" width="1" height="1"/><rect x="21" y="33" width="1" height="1"/><rect x="24" y="33" width="1" height="1"/><rect x="27" y="33" width="1" height="1"/><rect x="31" y="33" width="1" height="1"/><rect x="33" y="33" width="1" height="1"/><rect x="35" y="33" width="1" height="1"/><rect x="36" y="33" width="1" height="1"/><rect x="38" y="33" width="1" height="1"/><rect x="39" y="33" width="1" height="1"/><rect x="3" y="34" width="1" height="1"/><rect x="9" y="34" width="1" height="1"/><rect x="14" y="34" width="1" height="1"/><rect x="17" y="34" width="1" height="1"/><rect x="18" y="34" width="1" height="1"/><rect x="19" y="34" width="1" height="1"/><rect x="22" y="34" width="1" height="1"/><rect x="24" y="34" width="1" height="1"/><rect x="27" y="34" width="1" height="1"/><rect x="30" y="34" width="1" height="1"/><rect x="31" y="34" width="1" height="1"/><rect x="35" y="34" width="1" height="1"/><rect x="36" y="34" width="1" height="1"/><rect x="39" y="34" width="1" height="1"/><rect x="3" y="35" width="1" height="1"/><rect x="5" y="35" width="1" height="1"/><rect x="6" y="35" width="1" height="1"/><rect x="7" y="35" width="1" height="1"/><rect x="9" y="35" width="1" height="1"/><rect x="12" y="35" width="1" height="1"/><rect x="16" y="35" width="1" height="1"/><rect x="17" y="35" width="1" height="1"/><rect x="19" y="35" width="1" height="1"/><rect x="21" y="35" width="1" height="1"/><rect x="22" y="35" width="1" height="1"/><rect x="24" y="35" width="1" height="1"/><rect x="26" y="35" width="1" height="1"/><rect x="27" y="35" width="1" height="1"/><rect x="29" y="35" width="1" height="1"/><rect x="31" y="35" width="1" height="1"/><rect x="32" y="35" width="1" height="1"/><rect x="33" y="35" width="1" height="1"/><rect x="34" y="35" width="1" height="1"/><rect x="35" y="35" width="1" height="1"/><rect x="36" y="35" width="1" height="1"/><rect x="3" y="36" width="1" height="1"/><rect x="5" y="36" width="1" height="1"/><rect x="6" y="36" width="1" height="1"/><rect x="7" y="36" width="1" height="1"/><rect x="9" y="36" width="1" height="1"/><rect x="11" y="36" width="1" height="1"/><rect x="12" y="36" width="1" height="1"/><rect x="14" y="36" width="1" height="1"/><rect x="15" y="36" width="1" height="1"/><rect x="16" y="36" width="1" height="1"/><rect x="18" y="36" width="1" height="1"/><rect x="20" y="36" width="1" height="1"/><rect x="21" y="36" width="1" height="1"/><rect x="22" y="36" width="1" height="1"/><rect x="23" y="36" width="1" height="1"/><rect x="27" y="36" width="1" height="1"/><rect x="28" y="36" width="1" height="1"/><rect x="29" y="36" width="1" height="1"/><rect x="31" y="36" width="1" height="1"/><rect x="33" y="36" width="1" height="1"/><rect x="35" y="36" width="1" height="1"/><rect x="36" y="36" width="1" height="1"/><rect x="3" y="37" width="1" height="1"/><rect x="5" y="37" width="1" height="1"/><rect x="6" y="37" width="1" height="1"/><rect x="7" y="37" width="1" height="1"/><rect x="9" y="37" width="1" height="1"/><rect x="11" y="37" width="1" height="1"/><rect x="14" y="37" width="1" height="1"/><rect x="15" y="37" width="1" height="1"/><rect x="18" y="37" width="1" height="1"/><rect x="20" y="37" width="1" height="1"/><rect x="24" y="37" width="1" height="1"/><rect x="26" y="37" width="1" height="1"/><rect x="27" y="37" width="1" height="1"/><rect x="29" y="37" width="1" height="1"/><rect x="33" y="37" width="1" height="1"/><rect x="34" y="37" width="1" height="1"/><rect x="35" y="37" width="1" height="1"/><rect x="38" y="37" width="1" height="1"/><rect x="3" y="38" width="1" height="1"/><rect x="9" y="38" width="1" height="1"/><rect x="12" y="38" width="1" height="1"/><rect x="14" y="38" width="1" height="1"/><rect x="19" y="38" width="1" height="1"/><rect x="23" y="38" width="1" height="1"/><rect x="25" y="38" width="1" height="1"/><rect x="28" y="38" width="1" height="1"/><rect x="29" y="38" width="1" height="1"/><rect x="32" y="38" width="1" height="1"/><rect x="35" y="38" width="1" height="1"/><rect x="36" y="38" width="1" height="1"/><rect x="37" y="38" width="1" height="1"/><rect x="3" y="39" width="1" height="1"/><rect x="4" y="39" width="1" height="1"/><rect x="5" y="39" width="1" height="1"/><rect x="6" y="39" width="1" height="1"/><rect x="7" y="39" width="1" height="1"/><rect x="8" y="39" width="1" height="1"/><rect x="9" y="39" width="1" height="1"/><rect x="12" y="39" width="1" height="1"/><rect x="13" y="39" width="1" height="1"/><rect x="15" y="39" width="1" height="1"/><rect x="17" y="39" width="1" height="1"/><rect x="21" y="39" width="1" height="1"/><rect x="24" y="39" width="1" height="1"/><rect x="27" y="39" width="1" height="1"/><rect x="28" y="39" width="1" height="1"/><rect x="29" y="39" width="1" height="1"/><rect x="32" y="39" width="1" height="1"/><rect x="33" y="39" width="1" height="1"/><rect x="36" y="39" width="1" height="1"/><rect x="37" y="39" width="1" height="1"/><rect x="38" y="39" width="1" height="1"/><rect x="39" y="39" width="1" height="1"/></g>
<rect x="14.835" y="14.835" width="13.330" height="13.330" rx="2.795" fill="#F9F7F4"/>
<g transform="translate(16.125 16.125) scale(0.005496) translate(368 1328)"><rect x="-368" y="-1328" width="1956" height="1956" rx="117.36" fill="#1E1C1A"/>
  <g>
    <path d="M66.0 0.0V-700.0H516.0V-580.0H198.0V-413.0H488.0V-293.0H198.0V-120.0H522.0V0.0Z" transform="translate(0 0)" fill="#F5F3F0"/>
    <path d="M196.0 0.0 18.0 -700.0H154.0L302.0 -85.0H316.0L464.0 -700.0H600.0L422.0 0.0Z" transform="translate(554 0)" fill="#E8865A"/>
  </g></g>
</svg>
